<?xml version="1.0" encoding="utf-8"?><svg version="1.1" id="Layer_1" xmlns="http://www.w3.org/2000/svg" xmlns:xlink="http://www.w3.org/1999/xlink" x="0px" y="0px" width="122.881px" height="122.88px" viewBox="0 0 122.881 122.88" enable-background="new 0 0 122.881 122.88" xml:space="preserve"><g><path d="M61.44,0c16.966,0,32.326,6.877,43.445,17.995s17.996,26.479,17.996,43.444c0,16.967-6.877,32.327-17.996,43.445 S78.406,122.88,61.44,122.88c-16.966,0-32.326-6.877-43.444-17.995S0,78.406,0,61.439c0-16.965,6.877-32.326,17.996-43.444 S44.474,0,61.44,0L61.44,0z M34.556,67.179c-1.313-1.188-1.415-3.216-0.226-4.529c1.188-1.313,3.216-1.415,4.529-0.227L52.3,74.611 l31.543-33.036c1.223-1.286,3.258-1.336,4.543-0.114c1.285,1.223,1.336,3.257,0.113,4.542L54.793,81.305l-0.004-0.004 c-1.195,1.257-3.182,1.338-4.475,0.168L34.556,67.179L34.556,67.179z M100.33,22.55C90.377,12.598,76.627,6.441,61.44,6.441 c-15.188,0-28.938,6.156-38.89,16.108c-9.953,9.953-16.108,23.702-16.108,38.89c0,15.188,6.156,28.938,16.108,38.891 c9.952,9.952,23.702,16.108,38.89,16.108c15.187,0,28.937-6.156,38.89-16.108c9.953-9.953,16.107-23.702,16.107-38.891 C116.438,46.252,110.283,32.502,100.33,22.55L100.33,22.55z"/></g></svg>