<svg width="120" height="51.3" fill="none" xmlns="http://www.w3.org/2000/svg"><path d="M21.474 20.433c0 6.672-4.8 12.096-14.099 12.096H0V2.705L7.362 0v31.749c4.305-1.392 6.178-5.216 6.178-9.73 0-3.68-1.249-7.855-5.007-8.272l-.065-.143c1.456-1.456 3.2-2.367 5.345-2.367 4.813.013 7.661 4.253 7.661 9.196zm21.877 8.545c-1.665 2.64-4.305 4.097-7.986 4.097-6.178 0-10.913-4.305-10.913-10.769 0-6.048 4.032-11.043 10.145-11.043 4.383 0 7.232 2.498 7.232 6.113 0 3.538-2.706 6.465-8.064 7.778 2.497 2.433 5.84 3.89 9.52 3.616zM29.668 15.152c0 3.616 1.392 7.024 3.68 9.521 1.458-1.6 2.225-3.33 2.225-5.424 0-4.24-2.497-6.464-4.24-6.464-1.04 0-1.665.832-1.665 2.367zm15.283 33.622v-6.048h.897v8.48L39.8 44.82v5.97h-.975v-8.402zM53.912 0v32.517h-7.361V2.783zm-7.01 50.791l3.616-8.402 3.746 8.402h-1.106l-.976-2.432h-3.264l-1.04 2.432zm2.432-3.33h2.432l-1.248-2.848zM76.57 28.98c-1.665 2.64-4.305 4.097-7.986 4.097-6.178 0-10.913-4.306-10.913-10.77 0-6.047 4.032-11.042 10.145-11.042 4.383 0 7.232 2.497 7.232 6.113 0 3.538-2.706 6.464-8.064 7.778 2.497 2.432 5.84 3.889 9.52 3.615zM65.801 48.71l2.081-5.97h1.106l-3.2 8.48-2.367-6.255-2.367 6.256-3.174-8.493h1.106l2.159 5.97 2.29-6.322zm-2.926-33.556c0 3.615 1.391 7.023 3.68 9.52 1.457-1.6 2.225-3.33 2.225-5.423 0-4.24-2.498-6.465-4.24-6.465-1.028 0-1.665.833-1.665 2.367zM74.62 42.727v.975h-3.603v2.29h3.33v.897h-3.33v2.991h3.616v.898H70.04v-8.064h4.579zm6.607 5.696c0 1.6-1.184 2.368-2.705 2.368h-2.16v-8.064h2.017c1.456 0 2.367.624 2.367 2.08 0 .833-.482 1.327-1.327 1.6 1.106.287 1.808.911 1.808 2.016zm-3.889-4.786v2.367h1.04c.833 0 1.457-.416 1.457-1.183 0-.833-.69-1.184-1.457-1.184zm1.17 6.321c.976 0 1.743-.559 1.743-1.6 0-1.04-.767-1.456-1.742-1.456h-1.184v3.056zM120 20.355v12.161h-7.362V21.747c-3.2.898-4.865 2.706-4.865 5.216 0 2.29 1.457 3.68 4.097 2.705l.066.143c-1.535 2.224-3.681 3.122-5.905 3.122-3.122 0-5.216-2.224-5.216-5.008 0-4.175 4.93-7.361 11.81-6.737v-.208c0-5.008-4.93-6.321-9.52-4.591l-.209-.208c2.224-3.33 5.489-4.93 9.235-4.93 5.293 0 7.869 3.408 7.869 9.105zm-32.647 11.33c4.799-.833 8.545-3.617 10.626-7.024h.208v3.889c0 2.991-1.327 3.967-4.175 3.967H78.52l-.143-.143L90.46 11.81h8.194zm1.834-19.732c-3.265 1.392-6.465 3.954-9.521 7.154l-.208-.065v-3.265c0-2.705.897-3.967 4.032-3.967h5.697z" fill="#9222dc"/></svg>