<?xml version="1.0" encoding="utf-8"?>
<!-- Svg Vector Icons : http://www.onlinewebfonts.com/icon -->
<!DOCTYPE svg PUBLIC "-//W3C//DTD SVG 1.1//EN" "http://www.w3.org/Graphics/SVG/1.1/DTD/svg11.dtd">
<svg version="1.1" xmlns="http://www.w3.org/2000/svg" xmlns:xlink="http://www.w3.org/1999/xlink" x="0px" y="0px" viewBox="0 0 1000 1000" enable-background="new 0 0 1000 1000" xml:space="preserve">
<metadata> Svg Vector Icons : http://www.onlinewebfonts.com/icon </metadata>
<g><path d="M500,13.5C231.8,13.5,13.5,231.8,13.5,500S231.8,986.5,500,986.5c268.2,0,486.5-218.3,486.5-486.5S768.2,13.5,500,13.5z M500,935.2C260,935.2,64.8,740,64.8,500S260,64.8,500,64.8C740,64.8,935.2,260,935.2,500S740,935.2,500,935.2z"/><path d="M500,990C229.8,990,10,770.2,10,500C10,229.9,229.8,10,500,10c270.2,0,490,219.8,490,490C990,770.1,770.2,990,500,990z M500,17C233.7,17,17,233.7,17,500s216.7,483,483,483c266.3,0,483-216.7,483-483S766.4,17,500,17z M500,938.7C258.1,938.7,61.3,741.9,61.3,500C61.3,258.1,258.1,61.3,500,61.3c241.9,0,438.7,196.8,438.7,438.7C938.7,741.9,741.9,938.7,500,938.7z M500,68.3C261.9,68.3,68.3,262,68.3,500c0,238,193.7,431.7,431.7,431.7S931.7,738,931.7,500C931.7,262,738.1,68.3,500,68.3z"/><path d="M747.5,300.2L403.3,644.3L252.5,493.6c-10.2-10.2-26.7-10.2-37,0c-10.2,10.2-10.2,26.7,0,37l187.7,187.7l381.1-381.1c10.2-10.2,10.2-26.7,0-37C774.2,290,757.7,290,747.5,300.2z"/><path d="M403.3,723.2l-2.5-2.5L213.1,533c-11.5-11.6-11.5-30.3,0-41.9c11.2-11.2,30.7-11.2,41.9,0l148.3,148.3L745,297.8c11.2-11.2,30.7-11.2,41.9,0c11.5,11.5,11.5,30.3,0,41.9L403.3,723.2z M234.1,489.4c-6.1,0-11.7,2.4-16,6.6c-8.8,8.8-8.8,23.2,0,32.1l185.3,185.2l378.7-378.6c8.8-8.9,8.8-23.2,0-32.1c-8.6-8.5-23.5-8.5-32,0L403.3,649.3l-2.5-2.5L250,496C245.8,491.8,240.1,489.4,234.1,489.4z"/></g>
</svg>