<svg width="300" height="292" xmlns="http://www.w3.org/2000/svg"><path d="M-4.39-4.959h309.52v301.21H-4.39zm66.4 49.06h-5.5c-5.111 0-9.096 4.374-9.219 9.761l-9.074 214.66c-.226 5.388 4.496 9.761 10.038 9.761h204.24c5.551 0 10.16-4.373 10.038-9.76l-9.075-214.66c-.226-5.399-4.128-9.762-9.219-9.762h-5.51l-1.516-21.509c-.39-5.285-4.077-9.587-9.095-9.587H72.638c-5.06 0-8.727 4.302-9.096 9.566l-1.536 21.52zm0 15.61h176.72l7.784 202.97H54.234zm14.729-15.61l1.27-15.753h144.73l1.27 15.753zm134.71 52.278c0-4.087-3.421-7.395-7.641-7.395-4.2 0-7.63 3.308-7.63 7.395V122.6c0 24.572-20.507 44.494-45.806 44.494-25.299 0-45.805-19.912-45.805-44.494V96.379c0-4.087-3.42-7.395-7.64-7.395-4.21 0-7.631 3.308-7.631 7.395v26.262c0 32.787 27.348 59.325 61.077 59.325s61.077-26.559 61.077-59.325V96.748z" fill="#fff" style="isolation:auto;mix-blend-mode:normal;text-decoration-color:#000;text-decoration-line:none;text-decoration-style:solid;text-indent:0;text-transform:none"/></svg>