<svg xmlns="http://www.w3.org/2000/svg" height="209" width="300"><path fill="#fff" d="M-4.364-3.169h311.09v216.73H-4.364zm17.9 97.12v90.46c0 6.24 5.043 10.987 10.821 10.987H274c6.111 0 10.82-5.122 10.82-11.328V93.951H13.53zm234.08 29.65c3.327.027 6.175 2.827 6.175 6.61 0 3.664-2.873 6.58-6.48 6.58h-69.274c-3.607 0-6.48-2.916-6.48-6.58s2.873-6.58 6.48-6.58h68.906c.226-.023.45-.033.672-.03zm-39.987 35.915h39.682c3.24 0 6.48 2.917 6.48 6.58s-2.873 6.58-6.48 6.58H207.63c-3.607 0-6.478-2.916-6.478-6.58s2.87-6.58 6.478-6.58zm77.192-79.13H13.531V60.238h271.29zm-260.47-64.85h249.64c5.778 0 10.822 4.748 10.822 10.988v20.52H13.523v-20.52c0-5.833 4.71-10.989 10.822-10.989zm249.65-13.54H24.361C11.001 1.996.652 12.986.652 26.553V184.44c0 13.568 10.347 24.557 23.707 24.557H274c13.361.013 24.188-10.979 24.188-24.554V26.527c-.04-13.542-10.85-24.53-24.19-24.53z"/></svg>