<svg width="139" height="56" xmlns="http://www.w3.org/2000/svg"><defs><linearGradient id="a" x1="-1.195" x2="2038.587" y1="-533.419" y2="-533.419" gradientTransform="translate(.082 64.444) scale(.06814)" gradientUnits="userSpaceOnUse"><stop stop-color="#e6007e" offset="0"/><stop stop-color="#d2007f" offset=".33"/><stop stop-color="#971b81" offset=".9"/><stop stop-color="#971b81" offset="1"/></linearGradient></defs><path d="M77.841 55.78a.794.794 0 0 1-.244-.12 10.116 10.116 0 0 1-.437-.531 3339.332 3339.332 0 0 0-7.078-8.905l-1.05-1.313-.006 5.185-.006 5.185-.028.08a.54.54 0 0 1-.387.362c-.06.018-.116.02-.35.016-.255-.004-.284-.007-.349-.032a.553.553 0 0 1-.318-.305l-.029-.071-.003-6.209c-.003-6.71-.007-6.254.059-6.431a.88.88 0 0 1 .231-.323 1 1 0 0 1 .364-.184 1.18 1.18 0 0 1 .41-.006.83.83 0 0 1 .326.17c.034.032.804 1.006 1.712 2.164a78228.041 78228.041 0 0 0 5.947 7.583l.86 1.096.005-5.288c.006-5.123.007-5.29.03-5.349a.612.612 0 0 1 .397-.4c.102-.03.367-.044.527-.026.206.024.36.127.443.297.083.168.076-.378.073 6.44-.003 5.96-.005 6.186-.027 6.268-.087.327-.265.53-.549.628a.693.693 0 0 1-.274.038.746.746 0 0 1-.249-.019zm31.999-.05a.67.67 0 0 1-.408-.287c-.036-.055-.675-1.586-2.142-5.131a1005.37 1005.37 0 0 0-2.099-5.055 27.93 27.93 0 0 0-.42.936 3085.213 3085.213 0 0 1-3.586 8.156c-.465 1.046-.45 1.02-.601 1.162a.734.734 0 0 1-.518.222.758.758 0 0 1-.555-.225.56.56 0 0 1-.138-.184c-.03-.066-.518-1.804-1.74-6.21l-1.697-6.118v-.32l.047-.096c.101-.204.233-.288.563-.358.114-.024.211-.04.217-.037.006.004.064.017.129.03a.57.57 0 0 1 .332.175c.126.136-.065-.534 1.687 5.914 1.313 4.834 1.317 4.85 1.327 4.84.005-.006.949-2.15 2.098-4.766s2.116-4.812 2.148-4.882a1.04 1.04 0 0 1 .208-.315.625.625 0 0 1 .486-.218c.267.001.484.108.612.303.027.04.876 2.036 2.114 4.967l2.082 4.931c.012.03.012.03.028-.018.01-.027.655-2.325 1.436-5.106.78-2.781 1.437-5.102 1.46-5.159.06-.146.145-.276.251-.383a.653.653 0 0 1 .491-.212c.358.003.603.174.681.478.022.083.025.282.005.375-.024.121-.541 2.02-.957 3.52-1.406 5.068-2.361 8.172-2.67 8.68a.913.913 0 0 1-.449.375.791.791 0 0 1-.422.016zm-28.817-.011a.521.521 0 0 1-.297-.224.519.519 0 0 1-.054-.416c.033-.118 4.998-12.364 5.072-12.51a.77.77 0 0 1 .515-.419c.095-.023.437-.027.597-.007.36.045.556.212.697.589l2.433 6.217 2.397 6.124-.004.153c-.003.136-.007.162-.036.224a.56.56 0 0 1-.242.246l-.08.04-.367.003c-.315.003-.376.001-.43-.016a.653.653 0 0 1-.339-.264c-.027-.044-.275-.658-.7-1.74l-.657-1.671-2.994.003-2.995.002-.56 1.4c-.309.769-.603 1.51-.655 1.645-.051.134-.11.28-.133.323a.616.616 0 0 1-.273.267l-.096.048-.369.002c-.332.003-.375.001-.43-.02zm7.945-5.082a1612.62 1612.62 0 0 0-2.378-6.076c-.007 0-.438 1.043-1.158 2.798a187.062 187.062 0 0 0-1.306 3.268c-.006.02.115.021 2.42.021 1.388 0 2.424-.005 2.422-.01zm29.366 5.091a3.815 3.815 0 0 1-1.053-.215c-.679-.262-1.161-.678-1.485-1.281-.197-.367-.338-.904-.395-1.502-.016-.17-.018-.67-.018-3.756 0-2.334.005-3.611.012-3.708.063-.727.27-1.369.6-1.867.133-.2.235-.322.385-.466.475-.452 1.148-.714 2.028-.79.096-.008 1.076-.012 2.768-.012 2.871 0 2.706-.005 2.86.074a.626.626 0 0 1 .314.374c.027.083.029.114.029.322 0 .255-.01.313-.076.444a.732.732 0 0 1-.396.334c-.04.013-.55.017-2.719.023-1.997.005-2.694.01-2.767.022-.498.076-.78.196-1.001.427-.243.254-.394.635-.44 1.114-.009.085-.014.605-.014 1.421v1.287h3.102c2.647 0 3.115.003 3.186.018a.59.59 0 0 1 .457.459c.023.11.023.411-.001.523a.596.596 0 0 1-.437.467c-.056.015-.52.017-3.187.018h-3.12l.003 1.672c.004 1.66.005 1.673.031 1.813a2.641 2.641 0 0 0 .149.496c.17.379.53.644 1.02.755.318.071.101.066 3.154.074 2.675.007 2.808.008 2.872.03.22.073.378.236.43.441.008.033.012.152.009.31l-.004.258-.047.096a.59.59 0 0 1-.25.262c-.155.083.075.077-3.04.075-1.554 0-2.885-.006-2.96-.012zm9.193-.005a1.173 1.173 0 0 1-.374-.114c-.217-.106-.36-.286-.433-.549l-.028-.098-.003-5.891c-.002-4.072 0-5.922.01-5.991.034-.266.119-.454.276-.613.148-.15.346-.244.634-.303l.139-.027h2.437c2.525 0 2.504 0 2.958.05.81.09 1.548.325 2.047.65a2.78 2.78 0 0 1 .783.76c.347.516.513 1.193.492 1.988-.02.704-.177 1.288-.485 1.792a3.012 3.012 0 0 1-.51.62l-.094.086.101.05a3.36 3.36 0 0 1 .893.658c.545.575.854 1.314.934 2.236.021.247.008.866-.024 1.1-.07.507-.19.904-.4 1.319-.483.95-1.382 1.627-2.635 1.987-.489.14-.925.216-1.649.286-.226.022-4.935.026-5.069.004zm4.658-1.467c.96-.042 1.71-.21 2.295-.517.649-.339 1.075-.86 1.232-1.508.06-.248.075-.388.075-.705 0-.408-.034-.656-.128-.94a1.743 1.743 0 0 0-.907-1.043c-.373-.187-.808-.292-1.45-.351-.203-.019-.485-.022-2.63-.026l-2.402-.004v5.107h1.82c1.006 0 1.942-.006 2.095-.013zm.209-6.677c1.283-.07 2.007-.393 2.33-1.04a2.01 2.01 0 0 0 .175-.692 4.23 4.23 0 0 0-.019-.776c-.142-.75-.673-1.152-1.725-1.303-.417-.06-.379-.058-2.697-.063l-2.2-.005v3.892h1.954c1.163 0 2.047-.005 2.182-.013zM57.059 35.876a24.168 24.168 0 0 1-.264-.018c-1.313-.086-2.226-.45-2.772-1.104-.447-.535-.676-1.247-.744-2.313-.008-.132-.012-5.394-.012-15.98V.68l.524.008c2.063.03 3.483.346 4.459.994.815.542 1.36 1.32 1.662 2.383.15.52.228 1.013.292 1.823.01.13.016 3.47.023 12.5.005 6.778.013 12.365.016 12.415.005.051.016.214.027.362.058.84.17 1.423.356 1.869.104.25.215.422.383.595.475.489 1.198.63 2.58.506l.239-.021.037-.003.04.282c.021.155.038.292.036.305-.003.027-.223.098-.997.32-1.72.497-2.999.736-4.498.842-.175.013-1.255.026-1.387.017zm73.807-.442c-1.002-.097-1.725-.38-2.217-.866-.46-.454-.731-1.085-.85-1.977-.07-.515-.082-.906-.073-2.218.005-.668.003-1.045-.005-1.037a8.44 8.44 0 0 0-.175.276 16.289 16.289 0 0 1-1.694 2.276 16.071 16.071 0 0 1-.97.966c-1.247 1.1-2.55 1.812-4.007 2.189a9.31 9.31 0 0 1-1.75.277c-.262.018-.968.018-1.227 0-1.09-.076-1.963-.295-2.76-.694a4.722 4.722 0 0 1-1.699-1.412c-.571-.772-.912-1.76-1.003-2.91-.02-.268-.009-1.258.017-1.478.129-1.056.453-1.95 1.002-2.768.61-.908 1.52-1.707 2.673-2.345 2.03-1.126 4.867-1.83 8.441-2.097.938-.07 2.067-.117 2.825-.117h.357l.01-.69c.01-.906 0-3.243-.018-3.527a16.157 16.157 0 0 0-.131-1.378c-.157-1.108-.444-2-.852-2.644-.595-.936-1.445-1.43-2.712-1.572-.594-.068-1.528-.058-2.247.023a9.324 9.324 0 0 0-3.81 1.299c-.22.132-.502.315-.496.32a6.148 6.148 0 0 1 1.195-.031 4.314 4.314 0 0 1 .868.193c1.085.377 1.825 1.19 2.064 2.266.063.282.075.406.075.795 0 .368-.01.501-.056.785-.251 1.534-1.232 2.544-2.742 2.822-.314.058-.435.067-.871.068-.445 0-.543-.01-.841-.08-1.16-.28-2.052-1.161-2.4-2.372a4.13 4.13 0 0 1 .08-2.52c.082-.223.28-.62.41-.825 1.174-1.834 3.754-3.087 7.07-3.432 1.047-.11 2.463-.118 3.781-.024 1.504.107 2.75.338 3.861.716 1.011.344 1.856.806 2.601 1.423.2.165.668.639.837.848 1.032 1.27 1.602 2.897 1.752 5.002.034.476.037.928.037 5.793 0 5.044.003 5.434.044 5.94.117 1.477.47 2.333 1.15 2.786.32.213.695.335 1.212.394a9.56 9.56 0 0 0 1.104.02c.126-.007.23-.01.232-.008.01.01.05.442.04.45-.03.03-.54.205-.866.297-1.439.405-3.494.712-5.381.805-.374.019-1.674.014-1.885-.007zm-7.554-3.348c.41-.056.77-.172 1.184-.38.841-.424 1.675-1.175 2.46-2.217a13.763 13.763 0 0 0 .741-1.086l.044-.074.009-3.095.008-3.096h-.042c-.132 0-.875.026-1.072.037-2.281.125-3.822.574-4.891 1.424-.164.13-.476.435-.606.592a4.73 4.73 0 0 0-.837 1.551c-.253.762-.375 1.697-.358 2.747.009.531.041.825.137 1.227.242 1.013.784 1.748 1.565 2.122a2.79 2.79 0 0 0 .97.266c.141.014.528.004.687-.018zm-35.014 3.045l-.309-.31 8.15-9.246a5593.557 5593.557 0 0 0 8.144-9.252 1.025 1.025 0 0 0-.148.027c-.827.186-2.145.276-3.633.25-.992-.017-1.429-.048-2.762-.194-1.645-.18-2.084-.213-2.958-.214-.58 0-.756.007-1.178.049-.962.096-1.825.336-2.338.648-.535.327-.967.816-1.288 1.46a5.166 5.166 0 0 0-.492 1.579 2.528 2.528 0 0 1-.016.107 4.538 4.538 0 0 1-.198-.025l-.197-.028-.01-.092c-.013-.12 0-1.676.015-1.956.057-.96.134-1.628.266-2.296.49-2.471 1.58-3.819 3.456-4.276.484-.118.951-.178 1.79-.227 1.297-.078 2.425-.054 4.744.098 1.351.088 1.915.121 2.583.153 1.287.06 2.415.064 3.228.012a24.398 24.398 0 0 0 4.32-.669l.378-.092.065-.015.064.056.23.197c.09.08.165.149.165.155 0 .006-3.668 4.233-8.15 9.391a30480.77 30480.77 0 0 0-8.187 9.424l-.035.042.043-.026c.098-.059.282-.157.505-.268 1.595-.8 3.413-1.15 5.496-1.061.891.038 1.652.123 3.112.35a49.3 49.3 0 0 0 2.54.337c1.2.112 2.063.026 2.848-.284.346-.137.599-.37.847-.779.318-.523.592-1.376.724-2.245l.02-.136.197.027c.107.015.199.03.204.035.013.014.008 1.196-.008 1.492-.086 1.603-.33 2.87-.766 3.983-.6 1.527-1.538 2.631-2.765 3.253a4.9 4.9 0 0 1-1.664.501c-.517.059-1.555.085-2.196.056-.871-.039-1.52-.123-2.687-.347l-.835-.161a26.705 26.705 0 0 0-4.443-.498c-1.547-.053-3.329.226-5.152.805-.398.127-.967.333-1.293.469l-.118.05zm-75.797.217c-1.336-.071-2.583-.404-3.995-1.065a28.515 28.515 0 0 1-1.27-.651c-1.05-.57-1.301-.701-1.651-.861a4.667 4.667 0 0 0-1.086-.362 3.372 3.372 0 0 0-.847-.007c-.781.116-1.445.531-2.047 1.279-.248.31-.522.735-.741 1.153l-.084.16-.371.003L.037 35v-1.334L.02 17.044 0 1.073V.388h.206c.263 0 .903.02 1.181.037 2.568.154 3.993.779 4.841 2.123.093.146.277.513.345.687.286.726.436 1.538.485 2.628.014.293.005 4.543-.02 9.616l-.006 1.374.103-.307c.364-1.084.825-1.927 1.485-2.718a7.734 7.734 0 0 1 1.07-1.026 7.47 7.47 0 0 1 2.55-1.27c1.33-.378 2.918-.456 4.566-.226 1.625.228 3.093.794 4.317 1.666a8.6 8.6 0 0 1 1.141.986c.954.976 1.677 2.165 2.201 3.62.397 1.1.666 2.413.774 3.78.045.555.05.733.05 1.509 0 .802-.005.955-.055 1.51-.333 3.645-1.914 6.673-4.498 8.613-1.538 1.155-3.39 1.896-5.504 2.205-.42.061-.842.104-1.344.136a30.76 30.76 0 0 1-1.388.017zm1.013-1.011a3.48 3.48 0 0 0 1.95-.761 5.05 5.05 0 0 0 .77-.803c1.027-1.359 1.686-3.665 1.924-6.733.077-.99.105-1.805.105-3.062 0-2.215-.11-3.91-.35-5.363-.393-2.394-1.117-3.841-2.27-4.542-.45-.272-.958-.43-1.617-.505-.271-.03-.94-.03-1.193 0-1.582.189-2.907 1.017-3.895 2.435-1.033 1.482-1.659 3.597-1.837 6.214a20.5 20.5 0 0 0-.052 1.51 35.462 35.462 0 0 0 .206 4.35c.444 3.814 1.592 6 3.596 6.844.654.275 1.426.419 2.301.427.109 0 .271-.004.362-.011zm26.001 1.01a22.108 22.108 0 0 1-1.958-.14c-3.363-.394-5.884-1.595-7.554-3.6-1.349-1.62-2.139-3.771-2.362-6.438-.05-.598-.056-.765-.056-1.577 0-.793.004-.916.05-1.418.31-3.414 1.81-6.367 4.258-8.377a11.621 11.621 0 0 1 2.148-1.392c1.698-.857 3.567-1.322 5.72-1.424a25.732 25.732 0 0 1 1.564 0c2.492.108 4.487.659 5.985 1.652 1.476.978 2.363 2.342 2.57 3.952.105.82.029 1.633-.227 2.404a5.537 5.537 0 0 1-1.38 2.204c-1.035 1.034-2.493 1.766-4.192 2.104-2.026.404-4.309.261-6.708-.417a18.3 18.3 0 0 1-.91-.284.451.451 0 0 1 .03-.122l.04-.118.08.007c.192.017.96.023 1.172.009.884-.06 1.652-.255 2.343-.598 1.47-.726 2.443-2.086 2.693-3.76.049-.329.057-.46.056-.94a10.195 10.195 0 0 0-.055-1.16c-.191-1.884-.83-3.19-1.857-3.79a2.68 2.68 0 0 0-1.002-.334 3.701 3.701 0 0 0-.737.006 2.717 2.717 0 0 0-1.371.617c-1.62 1.345-2.457 4.785-2.458 10.111 0 .97.024 1.657.087 2.448.323 4.103 1.538 6.796 3.641 8.074a7.427 7.427 0 0 0 .825.411c1.392.545 3.165.594 4.769.132a7.937 7.937 0 0 0 3.618-2.24 8.606 8.606 0 0 0 1.372-1.976 9.33 9.33 0 0 0 .613-1.498c.029-.094.055-.175.06-.18.004-.004.092.027.197.07l.2.082c.01.005-.066.301-.15.576a9.461 9.461 0 0 1-1.057 2.297c-.935 1.46-2.282 2.638-3.945 3.447-1.437.698-3.055 1.095-4.805 1.177a28.291 28.291 0 0 1-1.307.004zm36.796.002a21.802 21.802 0 0 1-2.246-.178c-2.68-.356-4.825-1.249-6.389-2.657a11.923 11.923 0 0 1-.706-.711c-1.399-1.582-2.238-3.717-2.503-6.364-.1-.996-.117-2.127-.049-3.038.203-2.694 1.142-5.126 2.719-7.045a12.723 12.723 0 0 1 1.25-1.296c2.038-1.785 4.632-2.817 7.66-3.048.485-.037.855-.046 1.51-.04.657.008.837.015 1.356.058 3.437.286 5.944 1.55 7.12 3.586a5.436 5.436 0 0 1 .624 3.619c-.328 1.902-1.703 3.522-3.767 4.436-1.068.473-2.21.736-3.603.83-.28.02-1.204.02-1.51 0a16.478 16.478 0 0 1-3.252-.528c-.522-.138-1.252-.363-1.252-.387 0-.008.016-.06.035-.117l.035-.104.072.002c.614.016.985.018 1.178.005 1.299-.087 2.36-.47 3.246-1.172a6.66 6.66 0 0 0 .714-.708 5.143 5.143 0 0 0 1.09-2.615c.062-.491.052-1.306-.025-2.03-.116-1.085-.4-2.026-.812-2.681-.508-.81-1.186-1.265-2.047-1.376a3.74 3.74 0 0 0-.729.006c-.609.088-1.137.361-1.605.833-1.15 1.156-1.866 3.474-2.121 6.87a38.447 38.447 0 0 0-.1 2.36c-.022 1.16.007 2.2.088 3.181.27 3.293 1.114 5.668 2.533 7.124.864.886 1.918 1.427 3.192 1.638.9.15 1.893.132 2.822-.049 2.43-.474 4.46-2.03 5.653-4.33a9.611 9.611 0 0 0 .633-1.547c.032-.102.058-.186.06-.188 0-.001.091.034.2.079.135.055.199.087.199.1 0 .06-.196.713-.305 1.015a9.414 9.414 0 0 1-1.112 2.148 9.468 9.468 0 0 1-2.664 2.537 10.983 10.983 0 0 1-2.884 1.292c-.878.253-1.718.398-2.743.473a38.86 38.86 0 0 1-1.565.017z" fill="url(#a)" stroke-width=".463"/></svg>