<svg width="300" height="300" xmlns="http://www.w3.org/2000/svg" xmlns:xlink="http://www.w3.org/1999/xlink"><circle cx="150.05" cy="149.95" r="149.9" fill="url(#a)"/><defs><path id="d" d="M260.86 33.725c-50.803 21.492-96.424 52.248-135.6 91.424-39.175 39.172-69.933 84.792-91.42 135.59C11.591 313.345.311 369.209.311 426.799c0 57.591 11.28 113.46 33.529 166.06 21.489 50.812 52.245 96.431 91.42 135.6 39.17 39.176 84.791 69.937 135.6 91.424 52.605 22.25 108.48 33.528 166.06 33.528 59.645 0 117.36-12.076 171.54-35.89 52.336-23.01 95.219-59.262 134.67-100.94l4.975-5.261-5.234-4.959-4.975 4.978c-76.015 75.943-180.58 114.43-288.03 114.43-6.53 0-13.133-.157-19.852-.48-104.84-1.788-203.23-44.081-277.05-119.09-73.903-75.091-114.6-174.32-114.6-279.41 0-219.76 178.79-398.55 398.56-398.55 186.73 0 350.62 132.32 389.69 314.61 5.874 27.41 8.855 55.647 8.855 83.944 0 2.273-.237 56.215-20.593 100.43-4.183 8.426-12.642 19.517-23.059 22.202-18.29 1.87-44.412-3.734-61.343-6.164a.155.155 0 0 0-.063-.015c-13.274-2.007-64.99-10.978-101.2 9.446l-.666.52 1.114-1.225v.005l171.46-197.25-5.004-4.244-3.64.868c-8.791 2.303-34.268 8.059-62.864 7.692-40.531-.544-67.478-5.791-102.11-2.597-28.901 2.65-52.63 17.28-50.618 92.58l4.252.559s2.37-28.135 25.193-36.042c25.621-8.867 56.328-1.935 77.648-.631 36.737 2.223 53.256-2.484 53.256-2.484l-171.71 194.66 6.389 6.505c.786-.313 34.075-15.098 69.122-13.962 53.022 1.71 63.655 13.55 100.52 9.758 11.929-1.18 53.268-7.034 76.183-32.597 12.517-13.967 22.219-32.426 29.822-53.992 15.192-43.135 15.96-85.893 15.96-94.03 0-30.276-3.189-60.492-9.474-89.823-20.14-93.962-72.431-179.39-147.23-240.56-37.282-30.49-79.038-54.266-124.12-70.663C526.039 8.784 476.993.186 426.924.186c-57.587 0-113.46 11.278-166.06 33.524"/><path id="c" d="M130.05 606.92h7.78c11.2-22.104 23.239-27.606 34.905-27.606 21.502 0 47.804 31.442 93.073 31.442 84.009 0 130.12-57.391 130.12-130.9 0-77.32-40.083-123.61-109.02-123.61-43.551 0-72.426 22.913-83.178 59.909l.437-109.19c0-53.1-24.556-64.142-74.53-64.142zm73.679-127.06c0-84.958 37.084-109.17 66.787-109.17 32.304 0 51.294 19.527 51.294 110.47 0 79.442-18.99 118.96-53.009 118.96-41.785 0-65.072-27.621-65.072-120.26z"/><path id="b" d="M.078 211.84v116.61c0 29.34 10.748 42.092 45.23 42.092 26.692 0 50.86-7.212 67.246-12.331l-.916-6.379c-31.435 3.41-38.315-3.374-38.315-47.976V62.966C73.323 11.116 47.893.068.08.068v47.58z"/><mask id="e" fill="#fff"><use width="100%" height="100%" xlink:href="#b"/></mask><linearGradient id="a" x1="-95.483" x2="330.41" y1="996.09" y2="996.09" gradientTransform="translate(-2.876 -845.47) scale(.99933)" gradientUnits="userSpaceOnUse"><stop stop-color="#EA4999" offset="0"/><stop stop-color="#643F99" offset="1"/></linearGradient></defs><use transform="translate(84.407 -637.81)" width="100%" height="100%" fill="none" xlink:href="#c"/><g transform="translate(-15.859 -15.754) scale(.32437)" fill="#fff" fill-rule="evenodd"><use transform="translate(97.817 97.595) scale(.96859)" width="100%" height="100%" stroke="#fff" stroke-width="6.166" xlink:href="#d"/><use transform="translate(84.407 84.188)" width="100%" height="100%" xlink:href="#c"/><use transform="translate(512.15 329.91)" width="100%" height="100%" xlink:href="#b"/></g><path transform="translate(512.15 -392.09)" d="M.078 95.231v233.22c0 29.34 10.748 42.092 45.23 42.092 26.692 0 50.86-7.212 67.246-12.331l-.916-6.379c-31.435 3.41-38.315-3.374-38.315-47.976V62.967C73.323 11.117 47.893.07.08.07z" fill="none" mask="url(#e)"/></svg>
